<?xml version="1.0" standalone="no"?><!DOCTYPE svg PUBLIC "-//W3C//DTD SVG 1.1//EN" "http://www.w3.org/Graphics/SVG/1.1/DTD/svg11.dtd"><svg t="1607869093694" class="icon" viewBox="0 0 1024 1024" version="1.1" xmlns="http://www.w3.org/2000/svg" p-id="5643" xmlns:xlink="http://www.w3.org/1999/xlink" width="32" height="32"><defs><style type="text/css"></style></defs><path d="M673.0472 762.787028H355.467708c-13.637812 0-22.667626 9.309087-22.667627 23.086535 0 13.870539 9.029814 23.086535 22.667627 23.086535h317.765673c13.684357 0 22.667626-9.309087 22.667626-23.086535-0.093091-13.96363-9.122905-23.086535-22.807262-23.086535z" fill="#3C81F0" p-id="5644"></path><path d="M831.906764 92.486242h-188.322824A136.238484 136.238484 0 0 0 514.234181 0.000465C452.933845 0.000465 405.317867 39.377902 384.930967 92.486242H196.421962c-49.94325 0-90.763595 41.611617-90.763595 92.485776v739.700027c0 50.874159 40.820345 92.485776 90.763595 92.485776h635.438256c49.989795 0 90.763595-41.611617 90.763595-92.485776V184.878927c0-50.781068-40.7738-92.392685-90.763595-92.392685zM309.946274 138.705857h113.477766c0-50.874159 40.866891-92.485776 90.810141-92.485776C564.223976 46.173535 605.090867 87.785153 605.090867 138.705857h113.477766V208.058553c0 13.917085-8.983269 23.086535-22.667626 23.086535H332.660445c-13.684357 0-22.714171-9.309087-22.714171-23.086535V138.705857z m567.388833 785.873097c0 25.460352-20.479991 46.17307-45.288707 46.17307H196.421962a45.754161 45.754161 0 0 1-45.335252-46.17307V184.878927c0-25.460352 20.479991-46.219615 45.335252-46.219615h68.142514v92.485776c0 25.460352 20.479991 46.219615 45.335252 46.219615h408.482724a45.940343 45.940343 0 0 0 45.335252-46.219615V138.705857h68.142514c24.994898 0 45.335252 20.852354 45.335252 46.219615v739.606937h0.139637z" fill="#3C81F0" p-id="5645"></path><path d="M673.0472 600.995101H355.467708c-13.637812 0-22.667626 9.215996-22.667627 23.086535 0 13.917085 9.029814 23.086535 22.667627 23.086535h317.765673c13.684357 0 22.667626-9.16945 22.667626-23.086535-0.093091-13.870539-9.122905-23.086535-22.807262-23.086535z m0-161.885017H355.467708c-13.637812 0-22.667626 9.16945-22.667627 23.086535s9.029814 23.086535 22.667627 23.086535h317.765673c13.684357 0 22.667626-9.16945 22.667626-23.086535s-9.122905-23.086535-22.807262-23.086535zM316.50918 392.192287H199.587051a22.807262 22.807262 0 0 1-22.574535-22.993444 22.807262 22.807262 0 0 1 22.574535-22.946899H316.50918a22.807262 22.807262 0 0 1 22.52799 22.946899c0 12.567267-10.100359 22.993444-22.52799 22.993444z" fill="#3C81F0" p-id="5646"></path><path d="M235.520126 428.823543v-119.156309a22.807262 22.807262 0 0 1 22.527989-22.993444 22.807262 22.807262 0 0 1 22.52799 22.946898v119.15631a22.807262 22.807262 0 0 1-22.52799 22.993444 22.807262 22.807262 0 0 1-22.574535-22.946899z" fill="#3C81F0" p-id="5647"></path></svg>