<?xml version="1.0" standalone="no"?><!DOCTYPE svg PUBLIC "-//W3C//DTD SVG 1.1//EN" "http://www.w3.org/Graphics/SVG/1.1/DTD/svg11.dtd"><svg t="1607867723600" class="icon" viewBox="0 0 1024 1024" version="1.1" xmlns="http://www.w3.org/2000/svg" p-id="1572" xmlns:xlink="http://www.w3.org/1999/xlink" width="32" height="32"><defs><style type="text/css"></style></defs><path d="M48 272.8l419.2 212v537.6c-3.2-1.6-5.6-2.4-8.8-4l-348-176c-39.2-20-64.8-60.8-64.8-104.8V295.2c0.8-8 1.6-15.2 2.4-22.4z m926.4-6.4c2.4 9.6 3.2 19.2 3.2 28.8v442.4c0 44-24.8 84.8-64.8 104.8l-348 176-8.8 4V484l168-88v182.4c0 22.4 16.8 40.8 38.4 44l5.6 0.8c24 0 44-20 44-44V350.4l162.4-84zM564.8 14.4l348 176 8 4.8L512 408 96.8 198.4c4.8-3.2 9.6-5.6 14.4-8.8L459.2 14.4c32.8-16.8 72.8-16.8 105.6 0z" p-id="1573"></path></svg>