<?xml version="1.0" standalone="no"?><!DOCTYPE svg PUBLIC "-//W3C//DTD SVG 1.1//EN" "http://www.w3.org/Graphics/SVG/1.1/DTD/svg11.dtd"><svg t="1607868753919" class="icon" viewBox="0 0 1024 1024" version="1.1" xmlns="http://www.w3.org/2000/svg" p-id="6584" xmlns:xlink="http://www.w3.org/1999/xlink" width="32" height="32"><defs><style type="text/css"></style></defs><path d="M113.8 198.4v190.4c0 26.4 21.1 47.5 47.5 47.5h190.4c12.6 0.1 24.7-4.9 33.6-13.8 8.9-8.9 13.9-21 13.8-33.6V198.4c0.1-12.6-4.9-24.7-13.8-33.6-8.9-8.9-21-13.9-33.6-13.8H161.3c-12.6-0.1-24.7 4.9-33.6 13.8-9 8.9-14 21-13.9 33.6z m-47.6 0c0-52.5 42.2-95 95-95h190.4c52.5 0 95 42.2 95 95v190.4c0.1 25.2-9.9 49.4-27.8 67.3-17.8 17.8-42 27.8-67.3 27.8H161.3c-25.2 0.1-49.4-9.9-67.3-27.8-17.8-17.8-27.8-42-27.8-67.3V198.4z m464.1 162.5c-17.9-17.8-27.9-42-27.9-67.2 0-25.2 10.1-49.4 27.9-67.2L664.9 91.8c37.1-37.1 97-37.4 134.4 0L934 226.5c37.1 37.1 37.4 97 0 134.4L799.3 495.5c-37.1 37.1-97 37.4-134.4 0L530.3 360.9z m168.3 101c8.9 9 21 14 33.6 14 12.6 0 24.7-5 33.6-14l134.6-134.7c9-8.9 14-21 14-33.6 0-12.6-5-24.7-14-33.6L765.7 125.5c-8.9-9-21-14-33.6-14-12.6 0-24.7 5-33.6 14L564 260.1c-9 8.9-14 21-14 33.6 0 12.6 5 24.7 14 33.6l134.6 134.6zM541.9 674.1c0-52.5 42.2-95 95-95h190.4c52.5 0 95 42.2 95 95v190.4c0.1 25.2-9.9 49.4-27.8 67.3-17.8 17.8-42 27.8-67.3 27.8H636.9c-25.2 0.1-49.4-9.9-67.3-27.8-17.8-17.8-27.8-42-27.8-67.3V674.1z m47.6 0v190.4c0 26.4 21.1 47.5 47.5 47.5h190.4c12.6 0.1 24.7-4.9 33.6-13.8 8.9-8.9 13.9-21 13.8-33.6V674.1c0.1-12.6-4.9-24.7-13.8-33.6-8.9-8.9-21-13.9-33.6-13.8H636.9c-12.6-0.1-24.7 4.9-33.6 13.8-8.9 8.9-13.9 21-13.8 33.6z m-523.3 0c0-52.5 42.2-95 95-95h190.4c52.5 0 95 42.2 95 95v190.4c0.1 25.2-9.9 49.4-27.8 67.3-17.8 17.8-42 27.8-67.3 27.8H161.3c-25.2 0.1-49.4-9.9-67.3-27.8-17.8-17.8-27.8-42-27.8-67.3V674.1z m47.6 0v190.4c0 26.4 21.1 47.5 47.5 47.5h190.4c12.6 0.1 24.7-4.9 33.6-13.8 8.9-8.9 13.9-21 13.8-33.6V674.1c0.1-12.6-4.9-24.7-13.8-33.6-8.9-8.9-21-13.9-33.6-13.8H161.3c-12.6-0.1-24.7 4.9-33.6 13.8-9 8.9-14 21-13.9 33.6z m0 0" p-id="6585" fill="#1296db"></path></svg>