<?xml version="1.0" standalone="no"?><!DOCTYPE svg PUBLIC "-//W3C//DTD SVG 1.1//EN" "http://www.w3.org/Graphics/SVG/1.1/DTD/svg11.dtd"><svg t="1607868778346" class="icon" viewBox="0 0 1024 1024" version="1.1" xmlns="http://www.w3.org/2000/svg" p-id="2002" xmlns:xlink="http://www.w3.org/1999/xlink" width="32" height="32"><defs><style type="text/css"></style></defs><path d="M255.999904 768.000246m-35.355339-35.355339a50 50 0 1 0 70.710678 70.710678 50 50 0 1 0-70.710678-70.710678Z" fill="#1296db" p-id="2003"></path><path d="M883.929817 249.134482c18.753179-18.753179 50.659251-11.478464 59.430204 13.551702C980.816174 369.581637 954.615747 489.572708 873.083506 571.104948c-78.078731 78.078731-191.256828 105.240116-294.132379 74.888265l-180.464964 240.117907c-61.63567 82.011659-178.086257 98.529673-260.098623 36.893296a185.759 185.759 0 0 1-19.747371-17.145218c-72.543499-72.543499-72.544206-190.158691-0.000707-262.70219 6.171628-6.171628 12.771056-11.901314 19.748078-17.144511l239.926988-180.320714C347.741352 342.703801 374.856775 229.290237 453.062078 151.084935c81.210507-81.210507 200.593466-107.542456 307.221633-70.693001 25.129868 8.685393 32.497921 40.679146 13.697366 59.481115l-112.322498 112.328155c-24.682269 24.682269-25.017438 64.580062-0.841457 89.654069l0.944694 0.958837 18.988646 18.988645c24.682976 24.682976 64.580062 25.017438 89.654069 0.841457l0.958836-0.944694L883.928403 249.134482z m3.751909 98.071468l-65.508494 65.508494-1.595233 1.568362c-53.300295 51.598996-138.218163 50.951286-190.738518-1.569069l-19.091883-19.091884-1.467247-1.489874-1.634124-1.713319c-50.049018-53.386562-48.893605-137.134875 3.100663-189.129144l64.877755-64.880583-1.878783-0.096873c-62.013972-2.9352-123.913392 19.827274-169.770681 65.684563-63.73507 63.73507-82.684824 158.31838-50.63026 240.759959l1.166726 2.948636c5.807468 15.006927 0.948937 32.075778-11.946569 41.76809l-260.919574 196.097681a113.759 113.759 0 0 0-12.093647 10.498414c-44.425398 44.425398-44.425398 116.454123 0 160.879521 3.779486 3.779486 7.821308 7.28815 12.094354 10.499122 50.223673 37.746067 121.537514 27.630905 159.284288-22.593476l196.212939-261.071602c9.676049-12.875 26.710959-17.742016 41.705158-11.969904l2.945807 1.158241c82.363798 31.850918 176.746997 12.853787 240.378122-50.777338 46.657734-46.657734 69.398288-109.915506 65.508494-172.988724z" fill="#1296db" p-id="2004"></path></svg>