<?xml version="1.0" standalone="no"?><!DOCTYPE svg PUBLIC "-//W3C//DTD SVG 1.1//EN" "http://www.w3.org/Graphics/SVG/1.1/DTD/svg11.dtd"><svg t="1607867719657" class="icon" viewBox="0 0 1024 1024" version="1.1" xmlns="http://www.w3.org/2000/svg" p-id="1432" xmlns:xlink="http://www.w3.org/1999/xlink" width="32" height="32"><defs><style type="text/css"></style></defs><path d="M313.344 0v90.197333h164.992V0h67.328v90.197333h164.992V0h67.328v90.197333h185.216V263.253333H1024v62.976h-60.8v154.24H1024v62.976h-60.8v154.24H1024v62.976h-60.8v173.098667h-185.173333V1024h-67.370667v-90.197333H545.706667V1024h-67.328v-90.197333H313.344V1024H246.016v-90.197333H60.8V760.746667H0v-62.976h60.8v-154.24H0v-62.976h60.8V326.272H0V263.296h60.8V90.197333h185.173333V0h67.370667z m582.528 153.173333H128.128v717.653334h767.744V153.173333zM520.106667 298.666667c59.477333 0 106.538667 11.52 141.141333 35.669333 33.322667 22.997333 54.229333 56.917333 62.72 102.912h-71.850667c-6.528-27.605333-20.906667-48.298667-43.093333-62.122667-22.272-14.336-52.309333-21.248-88.917333-21.248-45.056 0-81.024 13.226667-107.776 40.832-28.757333 28.757333-42.496 68.394667-42.496 119.04 0 49.408 12.416 87.381333 38.570666 113.834667 27.434667 28.757333 70.570667 43.093333 128.725334 43.093333a290.986667 290.986667 0 0 0 64.682666-7.466666c19.626667-4.565333 36.565333-11.52 52.266667-20.096v-89.173334h-128.725333V500.48H725.333333v172.544c-24.192 16.64-52.266667 29.312-84.266666 38.528a426.666667 426.666667 0 0 1-111.786667 13.781333c-74.453333 0-131.968-20.693333-173.098667-62.122666C317.610667 624.725333 298.666667 574.72 298.666667 513.706667c0-61.525333 18.944-112.128 57.514666-151.808C396.714667 319.36 451.541333 298.666667 520.106667 298.666667z" fill="#515151" p-id="1433"></path></svg>