<?xml version="1.0" standalone="no"?><!DOCTYPE svg PUBLIC "-//W3C//DTD SVG 1.1//EN" "http://www.w3.org/Graphics/SVG/1.1/DTD/svg11.dtd"><svg t="1607936434018" class="icon" viewBox="0 0 1024 1024" version="1.1" xmlns="http://www.w3.org/2000/svg" p-id="2729" xmlns:xlink="http://www.w3.org/1999/xlink" width="32" height="32"><defs><style type="text/css"></style></defs><path d="M982.53324212 227.11741147c0.3362418-43.7630978-18.50764048-59.61816706-60.20155968-59.52333007-270.11096222 0.60638495-540.22192726 0.73570634-810.33001645-0.03161139-41.44389539-0.11782941-53.00829625 18.32946134-52.67492748 57.34494658 1.44555011 169.58918618 1.87088009 339.21285954-0.17530617 508.79055092-0.55752716 46.28634486 19.23472509 56.07182689 60.27915585 55.24415655 100.4125713-2.02894266 201.13551613 3.66129377 301.27794416-1.93123268 88.73608692-4.95453013 166.91362532 8.73365328 232.94336743 73.00459304 19.09390608 18.5852339 45.90986994 29.24149808 77.36710879 48.55669231-4.70163049-44.21716619-8.1933669-77.03948885-12.7944116-120.30828226 73.67420364 0 140.3534369-1.08056993 206.97806912 0.41958396 37.88031156 0.85353575 57.8622406-9.69352082 57.48001679-52.60595584C981.17678021 566.43372977 981.231384 396.76407444 982.53324212 227.11741147zM366.54494572 718.57285581c-45.44717693 0-90.97195001 0-141.94842779 0 0-159.49332496 0-318.67914939 0-484.57543038 48.62566397 0 92.51808311 0 141.94842779 0C366.54494572 395.87030546 366.54494572 554.79460846 366.54494572 718.57285581zM820.29250892 373.23580518c-34.19602535 2.49163283-64.5640754 4.70737935-106.17752812 7.73929853 0 113.19548812 0 225.06612567 0 339.24159796-57.4311618 0-103.38988668 0-156.49014417 0 0-113.1811175 0-223.43377461 0-338.59497974-38.77120753-2.96294761-70.90380582-5.42009325-106.34995848-8.13014131 0-46.40417147 0-90.04369385 0-137.84168466 123.00108669 0 244.17727534 0 369.01763077 0C820.29250892 283.81286688 820.29250892 327.02705653 820.29250892 373.23580518z" fill="#ffffff" p-id="2730"></path><path d="M1167.73896859 456.6207733c5.75921085 4.71599831 12.04433469 6.81391537 18.86112584 6.28799959 6.80242061-0.51729397 16.50168742 0.39371858 29.07481372 2.75028124s27.62638775 4.45735273 45.18565547 6.28799964c17.54489716 1.8421417 30.51174196 7.34270415 38.89765596 16.50168744 8.37441915 9.17047804 13.61633595 20.03940581 15.71712606 32.61253206 2.0892953 12.5731263 2.61521106 21.61140711 1.5719985 27.1119696-1.05470452 5.50056247-6.28799963 15.85219626-15.7171261 31.04053078-9.42912647 15.19982927-17.42419474 28.9512383-23.96796975 41.25421854-6.555267 12.31447787-17.95011338 33.66723662-34.18453056 64.04390841 27.23554498 1.05470452 51.59435756 6.94898557 73.08218924 17.67997018 21.47633412 10.74247934 33.91438738 22.27239309 37.32565737 34.57537613 3.40264821 12.31447787 4.32228254 23.05695724 2.75028127 32.21881352-1.57199849 9.17047804-5.63563265 14.02154939-12.17940769 14.53884332-6.555267 0.52878876-14.67104057 2.2329873-24.36168835 5.10684389-9.69926685 2.88535146-18.73754771 5.10684389-27.11196961 6.67884521-8.38591389 1.57199849-21.35275878 4.06363415-38.89765591 7.46628237-17.55639479 3.40264821-7.73354972-12.43805331 29.4685323-47.54221816-29.86225082-5.23041929-50.29249942-9.29405343-61.2936272-12.17940767-11.00112496-2.87385665-17.16554918-4.97177371-18.46740733-6.28799964-1.3133529-1.30185813-5.24191692-3.53484539-11.78856205-6.67884528-6.555267-3.14399981-11.92075932-11.00112496-16.10796887-23.57425115-4.19870436-12.5731263-5.77070567-22.12582533-4.71599835-28.68109512 1.04320974-6.54377219 3.92856394-17.6799702 8.64456229-33.39709342s9.03828087-26.718251 12.96684485-33.00337485 15.05326429-30.11802339 33.39709342-71.51018796c-2.62670585-5.75921085-10.09298538-10.73098176-22.39596845-14.92968892-12.31447787-4.18720955-25.41639291-10.73098176-39.29137453-19.64568724-13.88647922-8.9032107-21.61140711-18.59098272-23.18053257-29.07481371-1.57199849-10.47520918-0.39371858-20.55382678 3.53484535-30.25309355C1148.48699709 436.3227191 1156.20905204 439.86043746 1167.73896859 456.6207733zM1196.02921806 244.44964501c37.719376-3.65842081 64.56120237 1.8421417 80.54559586 16.50168741 15.97577167 14.67104057 25.66354368 27.24416676 29.07481373 37.71937602 3.40264821 10.48383101 2.61521106 19.78076021-2.35656273 27.89653091-4.98326852 8.12726834-16.24304183 11.00112496-33.790812 8.64456228-17.55639479-2.35656265-30.5232368-2.87385665-38.89765586-1.5719985-8.38591389 1.3133529-15.85219626 0.39371858-22.39596849-2.75028122-6.555267-3.14399981-7.07256375-9.03828087-1.5719985-17.67997017s5.23041929-15.84070145-0.78456415-21.6114071c-6.02935126-5.75921085-12.44954805-11.39484353-19.25196864-16.89540603-6.81391537-5.50056247-9.17047804-14.14512477-7.07256382-25.93081383C1181.61395017 236.98336261 1187.11451262 235.54643434 1196.02921806 244.44964501z" fill="#ffffff" p-id="2731"></path><path d="M1979.42256837 613.96732621c-13.40079663-41.70254093-44.61950656-66.86603424-85.79325873-77.03374288-45.70294948-11.28563593-90.74204001-10.77409076-123.2856005 25.49398628-24.40192156-10.06712281-45.52189728-18.78065669-66.96087124-27.62351475 16.6999832-20.91018516 33.99485662-41.07029338 49.4073523-62.5811147 6.34834942-8.86297467 11.78568913-20.60268176 11.86328245-31.07789097 0.06897165-9.56706966-7.65882934-19.19161886-12.66221444-30.38241778 55.5229215-29.25873889 111.99708879-58.62381231 168.07466446-88.73034096 31.22733173-16.76608181 34.07532578-46.26910129 4.50620776-65.76534774-13.34044402-8.79687609-33.07234925-14.88083111-48.31528756-12.40644185-35.65307309 5.78794925-70.37214125 17.38971035-105.40445876 26.8791866-7.69331655 2.08354647-15.11648991 5.17294247-23.91336599 8.23072714-8.14738491-46.7892682-37.95790495-72.5476517-76.02789051-89.8022891-7.99794412-3.62393359-23.03396485-2.85086703-28.53452732 2.43990485-4.97751972 4.78784573-3.21297138 18.95021409-1.02022012 28.16954712 2.18700526 9.17909987 8.6072021 17.35235018 13.50138241 26.5860538-6.17879203 4.25043514-11.86328249 6.94898557-15.86943988 11.21953734-5.14133109 5.48331885-8.93769505 12.23113569-13.3117056 18.43292009 6.66447459 1.9542223 13.35768764 5.64138147 19.984802 5.52930092 17.80354557-0.30175458 30.44564341 6.3368546 38.70798192 24.28984095-40.05007324 22.18617787-79.82138431 44.21429324-125.55594801 69.55021685 5.18156428-17.23164778 9.75099766-27.70398397 11.16206055-38.5844064 1.18115574-9.11875008-1.32197473-18.71455807-2.19562706-28.1005756-10.23955323 2.67843382-25.67216548 2.04618628-29.84500726 8.59283428-20.68027522 32.44297468-40.79152838 65.71649269-56.34197006 100.80916284-11.21379136 25.30431233-0.64949115 39.07583509 27.96262956 56.3333483 21.75222612 13.11915862 38.65912693 6.18166783 51.72943054-10.98100833 36.46349982-47.88133578 86.92268364-78.04246534 137.19506928-107.38742232 29.36507346-17.1425568 63.32256987-26.41936945 95.21088756-39.23677346 1.2874875 2.72154284 2.57497508 5.44021266 3.8624654 8.16175554-52.86460429 35.0035791-104.51931163 72.06196917-159.05937317 104.23192762-31.96878691 18.85537708-25.94805748 60.23029804 6.3368546 76.26354929-7.36569659 5.49768945-14.06465836 9.40900704-19.42440186 14.68253529-30.31057042 29.82776361-61.4344462 58.97154894-89.67871366 90.66444668-8.02093653 9.00092069-13.15364302 28.16092534-8.97793106 38.27403016 4.04639058 9.7998526 21.59416352 14.28881677 33.59826501 20.34403618 2.90259504 1.46279371 7.33120939-0.10345878 7.29672213-0.10345878 5.1528259 17.69146493 9.17909987 32.30790166 13.71117299 46.76340282 2.69567743 8.59570735 8.33418594 16.78620121 8.94344384 25.42214171 2.2760963 32.26191969 9.21933307 63.69617183 38.21655338 80.95368219 39.77418405 23.66621521 127.46131525 23.65471762 163.74376008-39.22240285 31.06639615-53.83883963 42.7083905-110.36761063 8.46638312-168.33618587-3.46874681-5.87416445-8.27958213-11.57014973-9.5613236-17.93574271-1.11505712-5.5407957 0.11782941-13.3663094 3.54634017-17.504664 3.51472596-4.24181334 12.0127233-8.55547412 16.5074362-7.12429175 37.5440698 11.96386829 72.7172091 28.71845533 105.17742456 56.45405059-7.26798377 4.80796233-12.92086283 7.20763399-16.67412058 11.33736676-5.82530946 6.40870203-10.35450679 13.99568396-15.43261226 21.08261556 7.59273075 5.17006949 15.48721605 15.02452589 22.71783961 14.55895993 16.23442005-1.04608274 32.81082785-5.55229331 48.03364957-11.67073267C1981.60957361 653.46274523 1988.11311264 641.00744836 1979.42256837 613.96732621zM1720.70644962 602.52937647c-14.84347375 38.5930283-37.99239216 5.11259271-57.49438737 10.80570215C1681.06446561 579.25975281 1690.0107825 577.81707851 1720.70644962 602.52937647zM1688.43590816 769.23320837c-26.65789842 7.95196217-42.98715545 1.09781357-49.73497231-25.94230864-4.00903035-16.07348446-0.73570634-33.96611817-0.7357063-51.03970338 2.17838347 0.04598199 4.3567669 0.09196397 6.53515042 0.137946 4.31940675 10.23093141 6.24776643 22.75519984 13.42953501 30.2387258 18.24899211 19.01631265 45.51327551 14.44400638 58.99454132-8.8141197 9.7739872-16.86091879 17.96448113-34.64147476 29.13516348-56.45405067C1756.60380055 717.45779867 1735.848805 755.09095665 1688.43590816 769.23320837z" fill="#ffffff" p-id="2732"></path></svg>