<?xml version="1.0" standalone="no"?><!DOCTYPE svg PUBLIC "-//W3C//DTD SVG 1.1//EN" "http://www.w3.org/Graphics/SVG/1.1/DTD/svg11.dtd"><svg t="1607868766181" class="icon" viewBox="0 0 1024 1024" version="1.1" xmlns="http://www.w3.org/2000/svg" p-id="6770" xmlns:xlink="http://www.w3.org/1999/xlink" width="32" height="32"><defs><style type="text/css"></style></defs><path d="M219.428571 0h585.142858a219.428571 219.428571 0 0 1 219.428571 219.428571v585.142858a219.428571 219.428571 0 0 1-219.428571 219.428571H219.428571a219.428571 219.428571 0 0 1-219.428571-219.428571V219.428571a219.428571 219.428571 0 0 1 219.428571-219.428571z m321.097143 465.188571a201.545143 201.545143 0 0 0-66.925714-11.52c-149.577143 0-260.278857 116.443429-260.278857 269.970286 0 133.851429 110.701714-9.874286 260.315428 0 2.340571-0.182857 4.681143-0.329143 7.021715-0.365714A214.966857 214.966857 0 0 1 460.8 632.685714c0-67.584 31.085714-127.926857 79.725714-167.497143z m-83.748571-13.202285c86.235429 0 156.16-72.521143 156.16-162.011429 0-89.453714-69.924571-161.974857-156.16-161.974857-86.235429 0-156.16 72.521143-156.16 162.011429 0 89.453714 69.924571 161.974857 156.16 161.974857z m221.988571 358.692571c96.438857 0 174.555429-79.725714 174.555429-178.102857s-78.116571-178.102857-174.518857-178.102857-174.555429 79.725714-174.555429 178.102857 78.153143 178.102857 174.555429 178.102857z m-25.819428-140.434286l82.285714-142.518857a21.321143 21.321143 0 1 1 36.937143 21.321143l-92.964572 160.987429a21.321143 21.321143 0 0 1-29.147428 7.826285L564.662857 668.525714a21.321143 21.321143 0 0 1 21.357714-36.937143l66.925715 38.619429z" fill="#00C75B" p-id="6771"></path></svg>