<?xml version="1.0" standalone="no"?><!DOCTYPE svg PUBLIC "-//W3C//DTD SVG 1.1//EN" "http://www.w3.org/Graphics/SVG/1.1/DTD/svg11.dtd"><svg t="1607867715856" class="icon" viewBox="0 0 1024 1024" version="1.1" xmlns="http://www.w3.org/2000/svg" p-id="1291" xmlns:xlink="http://www.w3.org/1999/xlink" width="32" height="32"><defs><style type="text/css"></style></defs><path d="M726.4 974.4H297.6c-50.5 0-91.6-41.1-91.6-91.6V141.2c0-50.5 41.1-91.6 91.6-91.6h428.8c50.5 0 91.6 41.1 91.6 91.6v741.6c0 50.5-41.1 91.6-91.6 91.6zM297.6 103.2c-20.9 0-38 17-38 38v741.6c0 20.9 17 38 38 38h428.8c20.9 0 38-17 38-38V141.2c0-20.9-17-38-38-38H297.6z" fill="#1296db" p-id="1292"></path><path d="M232.8 182.9h558.4v53.6H232.8zM540 847.7h-56c-17.6 0-31.9-14.3-31.9-31.9v-0.2c0-17.6 14.3-31.9 31.9-31.9h56c17.6 0 31.9 14.3 31.9 31.9v0.2c0 17.5-14.3 31.9-31.9 31.9z" fill="#1296db" p-id="1293"></path></svg>