<?xml version="1.0" standalone="no"?><!DOCTYPE svg PUBLIC "-//W3C//DTD SVG 1.1//EN" "http://www.w3.org/Graphics/SVG/1.1/DTD/svg11.dtd"><svg t="1607868951269" class="icon" viewBox="0 0 1122 1024" version="1.1" xmlns="http://www.w3.org/2000/svg" p-id="2035" xmlns:xlink="http://www.w3.org/1999/xlink" width="35.0625" height="32"><defs><style type="text/css"></style></defs><path d="M519.062 361.931h-5.296L358.4 314.262c-3.531-1.765-7.062-3.531-10.593-8.828-1.766-3.53-1.766-8.827-1.766-12.358l47.67-155.366c3.53-8.827 12.358-14.124 21.186-12.358l155.365 47.669c3.531 1.765 7.062 3.53 10.593 8.827 1.766 3.531 1.766 8.828 1.766 12.359l-47.67 155.365c-3.53 7.062-8.827 12.359-15.889 12.359z m-135.945-75.917l123.586 37.076 37.076-123.587-123.586-37.075-37.076 123.586z m-19.42 582.62H358.4l-155.366-47.668c-3.53-1.766-7.062-3.532-10.593-8.828-1.765-3.531-1.765-8.828-1.765-12.359l47.669-155.365c1.765-3.531 3.53-7.062 8.827-10.593 3.531-1.766 8.828-1.766 12.359-1.766l155.366 47.67c8.827 3.53 14.124 12.358 10.593 21.185l-47.67 155.366c-1.765 7.062-7.061 12.358-14.123 12.358z m-135.945-75.917l123.586 37.076 37.076-123.586-123.586-37.076-37.076 123.586z m293.076-128.883h-5.297l-344.276-105.93c-3.53-1.766-7.062-3.532-10.593-8.828-1.765-3.531-1.765-8.828-1.765-12.359l61.793-199.503c1.765-3.531 3.53-7.062 8.827-10.593s8.828-1.766 12.359-1.766l344.276 105.931c8.827 3.531 14.124 12.359 10.593 21.186l-61.793 199.504c0 8.827-5.297 12.358-14.124 12.358z m-323.09-132.413l312.496 95.338 51.2-167.725-312.496-95.337-51.2 167.724z" fill="#1296db" p-id="2036"></path><path d="M395.564 389.756l23.27-75.97 32.061 9.833-23.27 75.953z m194.119 185.803h-5.297L547.31 563.2c-8.827-3.531-14.124-12.359-10.593-21.186 3.531-8.828 12.359-14.124 21.186-10.593l37.076 12.358c8.828 3.531 14.124 12.359 10.593 21.187-1.765 5.296-8.827 10.593-15.89 10.593zM310.73 665.494l23.287-75.952 32.062 9.816-23.27 75.97z" fill="#1296db" p-id="2037"></path><path d="M594.98 780.359c-21.187 0-42.373-3.531-61.794-8.828-8.827-3.531-14.124-12.359-10.593-21.186 3.531-8.828 12.359-14.124 21.186-10.593 95.338 30.014 195.973-24.718 225.987-120.055 14.124-45.904 8.827-95.338-12.36-137.71-22.95-42.373-60.027-74.153-105.93-88.277-8.828-3.53-14.124-12.358-10.593-21.186 3.53-8.827 12.358-14.124 21.186-10.593 54.731 17.655 98.869 52.966 127.117 104.166 26.483 51.2 31.78 107.696 15.89 162.427-33.545 91.807-118.29 151.835-210.097 151.835z" fill="#1296db" p-id="2038"></path><path d="M594.98 898.648c-31.78 0-65.325-5.296-97.104-14.124-8.828-3.53-14.124-12.358-10.593-21.186 3.53-8.828 12.358-14.124 21.186-10.593 155.365 47.669 324.855-40.607 372.524-199.504s-40.607-326.62-197.738-374.29c-8.827-3.53-14.124-12.358-10.593-21.185 3.531-8.828 12.359-14.125 21.186-10.594 174.786 52.966 273.655 240.11 220.69 414.897-45.904 144.772-178.317 236.58-319.559 236.58z" fill="#1296db" p-id="2039"></path></svg>