<?xml version="1.0" standalone="no"?><!DOCTYPE svg PUBLIC "-//W3C//DTD SVG 1.1//EN" "http://www.w3.org/Graphics/SVG/1.1/DTD/svg11.dtd"><svg t="1607868445078" class="icon" viewBox="0 0 1024 1024" version="1.1" xmlns="http://www.w3.org/2000/svg" p-id="1879" xmlns:xlink="http://www.w3.org/1999/xlink" width="32" height="32"><defs><style type="text/css"></style></defs><path d="M977.016471 270.034824v551.755294a96.737882 96.737882 0 0 1-193.475765 0V415.322353h-75.294118v534.889412h53.850353v42.767059H31.021176v-42.767059h53.790118V115.772235A85.775059 85.775059 0 0 1 170.767059 30.298353h451.523765a85.775059 85.775059 0 0 1 86.016 85.534118v256.722823h96.737882c7.649882 0 14.697412 4.096 18.492235 10.721882h3.011765v438.512942a53.790118 53.790118 0 0 0 107.459765 0V286.599529a32.045176 32.045176 0 0 1-9.456942-6.445176l-10.059294-9.999059-63.186823 16.865882a20.781176 20.781176 0 1 1-10.782118-40.116705l39.936-10.601412-57.886118-57.524706a31.924706 31.924706 0 0 1 0-45.417412 32.346353 32.346353 0 0 1 45.598118 0L970.089412 234.917647a31.924706 31.924706 0 0 1 6.927059 35.177412zM632.470588 137.336471c-0.060235-23.070118-17.227294-41.743059-38.309647-41.682824H192.150588c-21.082353-0.060235-38.249412 18.612706-38.249412 41.682824v812.815058H632.470588V137.336471z m-354.183529 53.36847h236.483765a42.767059 42.767059 0 0 1 0 85.534118H278.287059a42.767059 42.767059 0 1 1 0-85.534118zM450.198588 393.938824c11.685647 0.361412 21.082353 9.758118 21.504 21.383529l-55.838117 139.083294h88.18447a21.443765 21.443765 0 0 1 21.504 21.383529s-22.648471 31.623529-150.528 213.955765c0 0-10.24 21.865412-21.504 21.38353a22.226824 22.226824 0 0 1-21.504-21.38353l55.898353-139.083294H299.791059a21.443765 21.443765 0 0 1-21.504-21.383529s22.648471-31.623529 150.467765-213.955765c0 0 10.24-21.865412 21.443764-21.383529z" fill="#1afc00" p-id="1880"></path></svg>